<?xml version="1.0" encoding="iso-8859-1"?>
<!-- Uploaded to: SVG Repo, www.svgrepo.com, Transformed by: SVG Repo Tools -->
<svg fill="#444444" height="800px" width="800px" version="1.1" id="Layer_1" xmlns="http://www.w3.org/2000/svg" xmlns:xlink="http://www.w3.org/1999/xlink" 
	 viewBox="0 0 512 512" xml:space="preserve">
<g>
	<g>
		<path d="M0,0v277.333c0-5.461,2.091-10.923,6.251-15.083l64-64c5.205-5.205,12.373-6.784,19.093-5.483
			c2.155-0.128,4.331-0.235,6.528,0.341c7.957,2.027,13.461,8.363,15.232,15.829l53.312,53.312c8.341,8.32,8.341,21.824,0,30.165
			c-4.16,4.16-9.621,6.251-15.083,6.251c-5.461,0-10.923-2.091-15.083-6.251l-27.115-27.115
			c4.843,77.995,69.675,140.032,148.864,140.032c82.325,0,149.312-66.987,149.333-149.312c-0.021-7.189-0.512-14.379-1.515-21.333
			c-1.643-11.669,6.464-22.464,18.112-24.128c11.605-1.771,22.464,6.464,24.128,18.133c1.28,8.917,1.92,18.091,1.941,27.243v0.021
			V256c0,105.856-86.123,192-192,192c-103.04,0-187.115-81.643-191.573-183.595l-28.011,28.011c-8.32,8.32-21.824,8.32-30.165,0
			C2.091,288.235,0,282.773,0,277.333V512h512V0H0z M175.275,130.325c-10.432,6.72-20.053,14.763-28.587,23.915
			c-4.203,4.523-9.899,6.784-15.595,6.784c-5.205,0-10.453-1.877-14.549-5.717c-8.619-8.043-9.109-21.525-1.067-30.144
			c10.944-11.733,23.296-22.08,36.715-30.699c9.899-6.357,23.125-3.499,29.483,6.4C188.053,110.763,185.195,123.968,175.275,130.325
			z M307.285,91.797c-1.835,10.304-10.837,17.557-20.971,17.557c-1.259,0-2.517-0.107-3.797-0.341
			c-12.117-2.197-24.725-2.837-37.227-1.963c-11.563,0.747-21.952-8.043-22.763-19.797c-0.811-11.755,8.043-21.952,19.819-22.763
			c15.744-1.109,32.149-0.277,47.723,2.517C301.675,69.099,309.376,80.192,307.285,91.797z M405.461,170.773
			c-3.861,2.88-8.341,4.267-12.8,4.267c-6.464,0-12.885-2.944-17.067-8.533c-7.488-9.963-16.192-18.965-25.899-26.816
			c-9.152-7.403-10.581-20.843-3.2-29.995c7.424-9.173,20.821-10.603,30.037-3.2c12.437,10.048,23.595,21.632,33.173,34.411
			C416.768,150.336,414.869,163.691,405.461,170.773z"/>
	</g>
</g>
<g>
</g>
<g>
</g>
<g>
</g>
<g>
</g>
<g>
</g>
<g>
</g>
<g>
</g>
<g>
</g>
<g>
</g>
<g>
</g>
<g>
</g>
<g>
</g>
<g>
</g>
<g>
</g>
<g>
</g>
</svg>